<svg width="512" height="512" viewBox="0 0 512 512" fill="none" xmlns="http://www.w3.org/2000/svg">
  <defs>
    <linearGradient id="bg" x1="64" y1="48" x2="448" y2="464" gradientUnits="userSpaceOnUse">
      <stop stop-color="#1A2024"/>
      <stop offset="1" stop-color="#101416"/>
    </linearGradient>
    <radialGradient id="glow" cx="0" cy="0" r="1" gradientUnits="userSpaceOnUse" gradientTransform="translate(170 126) rotate(46.9749) scale(286.554)">
      <stop stop-color="#D3E97A" stop-opacity="0.28"/>
      <stop offset="1" stop-color="#D3E97A" stop-opacity="0"/>
    </radialGradient>
    <radialGradient id="blue" cx="0" cy="0" r="1" gradientUnits="userSpaceOnUse" gradientTransform="translate(392 404) rotate(-127.875) scale(218.808)">
      <stop stop-color="#60A5FA" stop-opacity="0.22"/>
      <stop offset="1" stop-color="#60A5FA" stop-opacity="0"/>
    </radialGradient>
    <filter id="shadow" x="87" y="106" width="338" height="304" filterUnits="userSpaceOnUse" color-interpolation-filters="sRGB">
      <feFlood flood-opacity="0" result="BackgroundImageFix"/>
      <feColorMatrix in="SourceAlpha" type="matrix" values="0 0 0 0 0 0 0 0 0 0 0 0 0 0 0 0 0 0 127 0" result="hardAlpha"/>
      <feOffset dy="18"/>
      <feGaussianBlur stdDeviation="16"/>
      <feColorMatrix type="matrix" values="0 0 0 0 0.0117647 0 0 0 0 0.027451 0 0 0 0 0.0352941 0 0 0 0.5 0"/>
      <feBlend mode="normal" in2="BackgroundImageFix" result="effect1_dropShadow_1_2"/>
      <feBlend mode="normal" in="SourceGraphic" in2="effect1_dropShadow_1_2" result="shape"/>
    </filter>
  </defs>
  <rect x="32" y="32" width="448" height="448" rx="112" fill="url(#bg)"/>
  <rect x="32" y="32" width="448" height="448" rx="112" fill="url(#glow)"/>
  <rect x="32" y="32" width="448" height="448" rx="112" fill="url(#blue)"/>
  <rect x="32" y="32" width="448" height="448" rx="112" stroke="rgba(255,255,255,0.08)"/>
  <g filter="url(#shadow)">
    <path d="M120 327C156.168 327 177.5 286.5 212.5 286.5C249.27 286.5 255.326 343.5 296 343.5C334.986 343.5 345.573 203.5 392 203.5" stroke="#D3E97A" stroke-width="28" stroke-linecap="round" stroke-linejoin="round"/>
    <path d="M359.5 203.5H392V236" stroke="#D3E97A" stroke-width="28" stroke-linecap="round" stroke-linejoin="round"/>
    <rect x="126" y="168" width="28" height="116" rx="14" fill="#F5F1E8" fill-opacity="0.94"/>
    <rect x="186" y="226" width="28" height="82" rx="14" fill="#60A5FA" fill-opacity="0.92"/>
    <rect x="246" y="136" width="28" height="132" rx="14" fill="#F5F1E8" fill-opacity="0.94"/>
    <rect x="306" y="188" width="28" height="76" rx="14" fill="#60A5FA" fill-opacity="0.92"/>
  </g>
</svg>
